<svg width="512" height="512" viewBox="0 0 512 512" fill="none" xmlns="http://www.w3.org/2000/svg">
<path d="M235.34 178.012C235.34 180.605 234.414 182.832 232.566 184.68C230.715 186.527 228.449 187.453 225.777 187.453C223.102 187.453 220.836 186.527 218.988 184.68C217.141 182.832 216.215 180.566 216.215 177.891V110.125C216.215 107.609 217.18 105.344 219.105 103.34C221.035 101.332 223.297 100.328 225.895 100.328C228.492 100.328 230.715 101.293 232.566 103.219C234.414 105.148 235.34 107.453 235.34 110.125V178.012Z" fill="#03045E"/>
<path d="M270.055 157.719V176.961C270.055 179.559 269.109 181.801 267.219 183.691C265.332 185.582 263.09 186.523 260.492 186.523C257.895 186.523 255.652 185.582 253.762 183.691C251.871 181.801 250.93 179.48 250.93 176.727V110.379C250.93 107.543 251.891 105.164 253.82 103.234C255.746 101.309 258.09 100.344 260.844 100.344H283.273C292.164 100.344 299.406 103.02 304.996 108.371C310.582 113.723 313.379 120.691 313.379 129.266C313.379 137.766 310.738 144.637 305.469 149.867C300.195 155.102 293.191 157.719 284.453 157.719H270.055ZM270.055 117.461V140.953H282.211C285.281 140.953 287.957 139.812 290.238 137.531C292.523 135.246 293.664 132.531 293.664 129.383C293.664 126.078 292.582 123.266 290.418 120.941C288.25 118.621 285.559 117.461 282.328 117.461H270.055Z" fill="#03045E"/>
<path d="M451.219 358.91C447.949 354.457 441.687 353.496 437.23 356.766C432.777 360.035 431.816 366.301 435.09 370.754C449.566 390.469 460.516 412.09 467.73 434.941C446.309 412.961 414.523 394.668 375.641 382.242C374.609 379.016 373.547 375.813 372.43 372.664C360.301 338.578 343.621 310.598 323.887 291.031C323.984 290.91 324.086 290.785 324.184 290.664C345.668 297.594 365.914 307.734 384.441 320.891C386.199 322.141 388.223 322.738 390.227 322.738C393.359 322.738 396.441 321.273 398.395 318.527C401.594 314.02 400.535 307.773 396.027 304.574C377.867 291.68 358.195 281.43 337.383 274.004C370.301 231.145 397.691 184.496 397.691 141.699C397.691 63.5664 334.129 0 256 0C177.871 0 114.309 63.5664 114.309 141.699C114.309 172.145 128.234 207.359 156.879 249.355C162.547 257.664 168.563 265.891 174.754 273.977C130.977 289.629 91.8672 318.117 63.5 355.293C31.1172 397.73 14 448.461 14 501.992C14 507.52 18.4805 512 24.0039 512H487.992C493.52 512 498 507.52 498 501.992C498 450.066 481.824 400.59 451.219 358.91V358.91ZM352.199 375.68C336.676 371.918 320.242 369.043 303.086 367.152C301.145 354.938 294.473 343.98 284.734 336.59C293.238 327.023 302.129 316.934 311.031 306.457C327.699 323.43 341.711 347.336 352.199 375.68V375.68ZM134.32 141.699C134.32 74.6016 188.906 20.0117 256 20.0117C323.094 20.0117 377.68 74.6016 377.68 141.699C377.68 202.164 308.555 279.773 262.812 331.125C260.48 333.742 258.211 336.289 256.004 338.777C253.871 336.375 251.68 333.914 249.434 331.391C203.594 279.887 134.32 202.055 134.32 141.699V141.699ZM227.281 336.594C217.551 343.98 210.883 354.934 208.941 367.152C191.77 369.039 175.328 371.918 159.793 375.684C170.293 347.312 184.316 323.391 201.004 306.414C209.996 317.027 218.895 327.145 227.281 336.594V336.594ZM118.715 491.988H34.8477C40.6836 457.004 76.7734 425.488 129.75 405.789C123.152 432.922 119.398 462.098 118.715 491.988ZM44.6094 434.59C66.168 367.555 119.012 312.832 187.926 290.648C188.012 290.754 188.094 290.855 188.18 290.961C168.414 310.527 151.715 338.527 139.574 372.641C138.453 375.797 137.387 379.008 136.352 382.246C97.6797 394.605 66.0234 412.766 44.6094 434.59V434.59ZM245.992 491.988H138.723C139.527 458.816 144.332 426.934 152.414 398.383C170.289 393.301 189.621 389.473 210.012 387.16C214.664 404.312 228.574 417.488 245.996 421.188V491.988H245.992ZM258.82 402.078C257.363 402.227 255.898 402.254 254.441 402.172C239.926 401.359 228.363 389.297 228.363 374.582C228.363 365.25 233.109 356.66 240.629 351.609C243.344 354.664 245.969 357.633 248.48 360.492C250.379 362.656 253.121 363.898 256 363.898C258.879 363.898 261.621 362.656 263.52 360.492C266.031 357.629 268.664 354.656 271.379 351.602C278.91 356.656 283.66 365.25 283.66 374.582C283.66 378.273 282.898 381.988 281.461 385.387C277.602 394.43 269.051 401.016 258.879 402.07C258.859 402.07 258.84 402.074 258.82 402.078C258.414 402.117 258.84 402.074 258.82 402.078C257.363 402.227 258.84 402.074 258.82 402.078V402.078ZM266.008 491.988V421.188C282.867 417.605 296.438 405.148 301.504 388.801C301.547 388.668 301.582 388.531 301.621 388.398C301.746 387.988 301.871 387.578 301.984 387.16C322.379 389.473 341.711 393.297 359.582 398.379C367.668 426.934 372.473 458.82 373.277 491.988H266.008ZM393.285 491.988C392.602 462.098 388.844 432.922 382.246 405.785C435.223 425.488 471.316 457 477.152 491.988H393.285Z" fill="#03045E"/>
<path d="M256 241.785C201.734 241.785 157.59 197.637 157.59 143.371C157.59 89.0898 201.734 44.9297 256 44.9297C310.277 44.9297 354.438 89.0898 354.438 143.371C354.438 197.637 310.277 241.785 256 241.785ZM256 64.9375C212.77 64.9375 177.602 100.121 177.602 143.371C177.602 186.602 212.77 221.773 256 221.773C299.246 221.773 334.426 186.602 334.426 143.371C334.426 100.121 299.246 64.9375 256 64.9375V64.9375Z" fill="#03045E"/>
<path d="M420.031 347.969C417.098 347.969 414.188 346.684 412.211 344.211L412.098 344.07C408.648 339.754 409.348 333.457 413.66 330.004C417.977 326.551 424.273 327.254 427.727 331.566L427.84 331.711C431.289 336.023 430.59 342.32 426.277 345.773C424.434 347.25 422.223 347.969 420.031 347.969V347.969Z" fill="#03045E"/>
</svg>
