<svg width="650" height="926" viewBox="0 0 650 926" fill="none" xmlns="http://www.w3.org/2000/svg">
<path d="M507.801 521.2C513.699 519.7 518.6 517.2 522.5 513.7C526.4 510.2 529.6 504.3 532.1 496.2C534.6 488.099 535.801 477 535.801 463.099C535.801 449.099 534.6 438.4 532.1 430.9C529.6 423.4 526.2 417.599 521.7 413.4C517.302 409.2 511.6 406.4 504.802 404.9C499.7 403.7 489.7 403.2 474.802 403.2H458.402V523H485.7C496 522.9 503.301 522.3 507.801 521.2Z" fill="#03045E"/>
<path d="M0 53.2V872.8C0 902.2 23.8 926 53.2 926H596C625.4 926 649.199 902.2 649.199 872.8V53.2C649.2 23.8 625.401 0 596 0H53.2C23.801 0 0 23.8 0 53.2ZM564.1 875.5C550.1 875.5 538.7 864.1 538.7 850.1C538.7 836.1 550.1 824.701 564.1 824.701C578.1 824.701 589.5 836.1 589.5 850.1C589.5 864.1 578.2 875.5 564.1 875.5ZM564.1 55.1C578.1 55.1 589.5 66.5 589.5 80.5C589.5 94.5 578.1 105.9 564.1 105.9C550.1 105.9 538.7 94.5 538.7 80.5C538.801 66.5 550.1 55.1 564.1 55.1ZM421.901 390.5C421.901 380.6 430.001 372.5 439.901 372.5H488.7C503.802 372.5 515.2 373.7 523.1 376C533.7 379.1 542.801 384.7 550.401 392.7C558.001 400.7 563.7 410.5 567.7 422C571.6 433.6 573.6 447.8 573.6 464.8C573.6 479.7 571.7 492.5 568 503.3C563.5 516.5 557 527.1 548.6 535.3C542.301 541.5 533.7 546.3 522.901 549.7C514.801 552.3 504.1 553.5 490.6 553.5H439.801C429.901 553.5 421.801 545.4 421.801 535.5V390.5H421.901V390.5ZM351 489.9C348.5 486.9 344.1 484.299 337.9 482.099C333.599 480.599 323.9 477.999 308.6 474.2C289 469.3 275.3 463.4 267.4 456.3C256.3 446.3 250.7 434.2 250.7 419.901C250.7 410.701 253.301 402.1 258.501 394.001C263.7 386.001 271.301 379.901 281.101 375.701C290.901 371.501 302.801 369.401 316.701 369.401C339.402 369.401 356.501 374.401 368.001 384.3C372.901 388.5 376.802 393.401 379.7 398.8C385.901 410.401 377.7 424.5 364.501 425.1H363.401C356.2 425.401 349.301 421.401 346.401 414.8C344.6 410.901 342.401 407.901 339.501 405.6C334.401 401.5 326.601 399.5 316.401 399.5C305.801 399.5 297.502 401.7 291.502 406C287.602 408.8 285.701 412.5 285.701 417.2C285.701 421.5 287.502 425.099 291.101 428.2C295.701 432.099 306.901 436.099 324.701 440.3C342.501 444.5 355.601 448.8 364.101 453.3C372.601 457.8 379.302 463.901 384.101 471.7C388.902 479.5 391.302 489.099 391.302 500.5C391.302 510.9 388.402 520.6 382.7 529.6C376.901 538.701 368.802 545.401 358.302 549.8C347.802 554.2 334.601 556.401 318.901 556.401C296.002 556.401 278.502 551.1 266.201 540.501C258.901 534.201 253.401 526.301 249.601 516.601C245.201 505.501 252.801 493.402 264.701 492.202C272.601 491.402 280.302 495.802 283.302 503.202C285.701 509.002 288.802 513.601 292.802 517.002C299.302 522.602 308.201 525.402 319.302 525.402C331.101 525.402 339.902 522.902 345.902 517.902C351.902 512.902 354.802 507.101 354.802 500.402C354.801 496.6 353.5 492.9 351 489.9ZM148.2 369.4C170.9 369.4 188.001 374.4 199.501 384.299C204.4 388.499 208.301 393.4 211.2 398.799C217.4 410.4 209.2 424.499 196.001 425.099H194.9C187.7 425.4 180.8 421.4 177.9 414.799C176.1 410.9 173.9 407.9 171.001 405.599C165.9 401.499 158.101 399.499 147.9 399.499C137.3 399.499 129 401.699 123 405.999C119.1 408.799 117.2 412.499 117.2 417.199C117.2 421.499 119 425.098 122.6 428.199C127.2 432.098 138.4 436.098 156.2 440.299C174.001 444.499 187.1 448.799 195.6 453.299C204.1 457.799 210.8 463.9 215.6 471.699C220.4 479.498 222.8 489.098 222.8 500.499C222.8 510.899 219.9 520.599 214.199 529.599C208.399 538.7 200.3 545.4 189.8 549.799C179.3 554.199 166.1 556.4 150.4 556.4C127.5 556.4 110 551.099 97.7 540.5C90.4 534.2 84.9 526.3 81.1 516.6C76.7 505.5 84.3 493.401 96.2 492.201C104.1 491.401 111.8 495.801 114.8 503.201C117.2 509.001 120.3 513.6 124.3 517.001C130.8 522.601 139.699 525.401 150.8 525.401C162.6 525.401 171.4 522.901 177.4 517.901C183.4 512.901 186.3 507.1 186.3 500.401C186.3 496.1 185 492.501 182.5 489.501C180 486.501 175.6 483.901 169.399 481.701C165.099 480.201 155.399 477.6 140.099 473.801C120.499 468.902 106.799 463.001 98.899 455.902C87.799 445.902 82.199 433.801 82.199 419.502C82.199 410.302 84.799 401.702 89.999 393.602C95.199 385.602 102.799 379.502 112.599 375.302C122.4 371.5 134.301 369.4 148.2 369.4ZM77.5 55.1C91.5 55.1 102.9 66.5 102.9 80.5C102.9 94.5 91.5 105.9 77.5 105.9C63.5 105.9 52.1 94.5 52.1 80.5C52.1 66.5 63.5 55.1 77.5 55.1ZM77.5 824.7C91.5 824.7 102.9 836.099 102.9 850.099C102.9 864.099 91.5 875.499 77.5 875.499C63.5 875.499 52.1 864.099 52.1 850.099C52.1 836.099 63.5 824.7 77.5 824.7Z" fill="#03045E"/>
</svg>
