<svg width="479" height="479" viewBox="0 0 479 479" fill="none" xmlns="http://www.w3.org/2000/svg">
<g clip-path="url(#clip0)">
<path d="M381.968 128.809C382.744 123.445 383.134 118.034 383.134 112.615C383.071 59.4505 345.566 13.6887 293.45 3.18289C241.334 -7.32295 189.031 20.3353 168.374 69.321C142.864 51.8762 109.062 52.6792 84.4052 71.313C59.7525 89.9506 49.7574 122.252 59.581 151.551C23.2998 166.396 -0.292534 201.827 0.00373501 241.02C0.296105 280.217 24.4147 315.29 60.9142 329.589C65.023 331.187 69.6502 329.156 71.2524 325.048C72.8546 320.935 70.8197 316.308 66.711 314.705C35.0453 302.305 14.6924 271.224 15.9905 237.243C17.2926 203.258 39.9532 173.818 72.4726 163.874C74.7024 163.187 76.5229 161.562 77.4507 159.426C78.3824 157.285 78.3317 154.849 77.3104 152.752C73.6499 145.22 71.7553 136.956 71.7709 128.582C71.7904 106.156 85.2044 85.912 105.85 77.1487C126.491 68.3854 150.376 72.7982 166.522 88.364C168.53 90.2859 171.391 91.0265 174.081 90.321C176.771 89.6115 178.895 87.5532 179.695 84.8907C194.746 35.3943 246.378 6.78879 296.323 20.2729C346.268 33.7531 376.491 84.4579 364.59 134.804C363.997 137.287 364.632 139.907 366.297 141.844C367.95 143.801 370.453 144.83 373.002 144.6C373.739 144.55 374.394 144.55 375.15 144.55C416.518 144.515 452.301 173.35 461.06 213.779C469.816 254.208 449.174 295.269 411.501 312.351C408.839 313.493 407.003 315.984 406.703 318.861C406.402 321.742 407.681 324.556 410.051 326.221C412.417 327.886 415.505 328.139 418.109 326.884C461.454 307.209 485.857 260.57 477.316 213.744C468.771 166.918 429.469 131.908 381.968 128.809V128.809Z" fill="#03045E"/>
<path d="M383.134 176.484H95.7219C91.313 176.484 87.7383 180.059 87.7383 184.468V264.305C87.7383 268.714 91.313 272.288 95.7219 272.288H383.134C387.543 272.288 391.117 268.714 391.117 264.305V184.468C391.117 180.059 387.543 176.484 383.134 176.484V176.484ZM375.15 256.321H103.706V192.452H375.15V256.321Z" fill="#03045E"/>
<path d="M343.215 200.435H359.183V216.403H343.215V200.435Z" fill="#03045E"/>
<path d="M311.281 200.435H327.248V216.403H311.281V200.435Z" fill="#03045E"/>
<path d="M279.346 200.435H295.314V216.403H279.346V200.435Z" fill="#03045E"/>
<path d="M247.412 200.435H263.379V216.403H247.412V200.435Z" fill="#03045E"/>
<path d="M215.477 200.435H231.444V216.403H215.477V200.435Z" fill="#03045E"/>
<path d="M343.215 232.37H359.183V248.337H343.215V232.37Z" fill="#03045E"/>
<path d="M311.281 232.37H327.248V248.337H311.281V232.37Z" fill="#03045E"/>
<path d="M279.346 232.37H295.314V248.337H279.346V232.37Z" fill="#03045E"/>
<path d="M247.412 232.37H263.379V248.337H247.412V232.37Z" fill="#03045E"/>
<path d="M215.477 232.37H231.444V248.337H215.477V232.37Z" fill="#03045E"/>
<path d="M183.542 200.435H199.51V216.403H183.542V200.435Z" fill="#03045E"/>
<path d="M183.542 232.37H199.51V248.337H183.542V232.37Z" fill="#03045E"/>
<path d="M143.624 248.337C156.851 248.337 167.575 237.617 167.575 224.386C167.575 211.16 156.851 200.435 143.624 200.435C130.397 200.435 119.673 211.16 119.673 224.386C119.673 237.617 130.397 248.337 143.624 248.337ZM143.624 216.403C148.033 216.403 151.607 219.977 151.607 224.386C151.607 228.795 148.033 232.37 143.624 232.37C139.215 232.37 135.64 228.795 135.64 224.386C135.64 219.977 139.215 216.403 143.624 216.403Z" fill="#03045E"/>
<path d="M383.134 280.272H95.7219C91.313 280.272 87.7383 283.847 87.7383 288.256V368.092C87.7383 372.501 91.313 376.076 95.7219 376.076H383.134C387.543 376.076 391.117 372.501 391.117 368.092V288.256C391.117 283.847 387.543 280.272 383.134 280.272ZM375.15 360.109H103.706V296.239H375.15V360.109Z" fill="#03045E"/>
<path d="M343.215 304.223H359.183V320.19H343.215V304.223Z" fill="#03045E"/>
<path d="M311.281 304.223H327.248V320.19H311.281V304.223Z" fill="#03045E"/>
<path d="M279.346 304.223H295.314V320.19H279.346V304.223Z" fill="#03045E"/>
<path d="M247.412 304.223H263.379V320.19H247.412V304.223Z" fill="#03045E"/>
<path d="M215.477 304.223H231.444V320.19H215.477V304.223Z" fill="#03045E"/>
<path d="M343.215 336.158H359.183V352.125H343.215V336.158Z" fill="#03045E"/>
<path d="M311.281 336.158H327.248V352.125H311.281V336.158Z" fill="#03045E"/>
<path d="M279.346 336.158H295.314V352.125H279.346V336.158Z" fill="#03045E"/>
<path d="M247.412 336.158H263.379V352.125H247.412V336.158Z" fill="#03045E"/>
<path d="M215.477 336.158H231.444V352.125H215.477V336.158Z" fill="#03045E"/>
<path d="M183.542 304.223H199.51V320.19H183.542V304.223Z" fill="#03045E"/>
<path d="M183.542 336.158H199.51V352.125H183.542V336.158Z" fill="#03045E"/>
<path d="M143.624 352.125C156.851 352.125 167.575 341.405 167.575 328.174C167.575 314.947 156.851 304.223 143.624 304.223C130.397 304.223 119.673 314.947 119.673 328.174C119.673 341.405 130.397 352.125 143.624 352.125ZM143.624 320.19C148.033 320.19 151.607 323.765 151.607 328.174C151.607 332.583 148.033 336.158 143.624 336.158C139.215 336.158 135.64 332.583 135.64 328.174C135.64 323.765 139.215 320.19 143.624 320.19Z" fill="#03045E"/>
<path d="M383.134 384.06H95.7219C91.313 384.06 87.7383 387.634 87.7383 392.043V471.88C87.7383 476.289 91.313 479.864 95.7219 479.864H383.134C387.543 479.864 391.117 476.289 391.117 471.88V392.043C391.117 387.634 387.543 384.06 383.134 384.06ZM375.15 463.896H103.706V400.027H375.15V463.896Z" fill="#03045E"/>
<path d="M343.215 408.011H359.183V423.978H343.215V408.011Z" fill="#03045E"/>
<path d="M311.281 408.011H327.248V423.978H311.281V408.011Z" fill="#03045E"/>
<path d="M279.346 408.011H295.314V423.978H279.346V408.011Z" fill="#03045E"/>
<path d="M247.412 408.011H263.379V423.978H247.412V408.011Z" fill="#03045E"/>
<path d="M215.477 408.011H231.444V423.978H215.477V408.011Z" fill="#03045E"/>
<path d="M343.215 439.945H359.183V455.913H343.215V439.945Z" fill="#03045E"/>
<path d="M311.281 439.945H327.248V455.913H311.281V439.945Z" fill="#03045E"/>
<path d="M279.346 439.945H295.314V455.913H279.346V439.945Z" fill="#03045E"/>
<path d="M247.412 439.945H263.379V455.913H247.412V439.945Z" fill="#03045E"/>
<path d="M215.477 439.945H231.444V455.913H215.477V439.945Z" fill="#03045E"/>
<path d="M183.542 408.011H199.51V423.978H183.542V408.011Z" fill="#03045E"/>
<path d="M183.542 439.945H199.51V455.913H183.542V439.945Z" fill="#03045E"/>
<path d="M143.624 455.913C156.851 455.913 167.575 445.192 167.575 431.962C167.575 418.735 156.851 408.011 143.624 408.011C130.397 408.011 119.673 418.735 119.673 431.962C119.673 445.192 130.397 455.913 143.624 455.913ZM143.624 423.978C148.033 423.978 151.607 427.553 151.607 431.962C151.607 436.371 148.033 439.945 143.624 439.945C139.215 439.945 135.64 436.371 135.64 431.962C135.64 427.553 139.215 423.978 143.624 423.978Z" fill="#03045E"/>
</g>
<defs>
<clipPath id="clip0">
<rect width="479" height="479" fill="white"/>
</clipPath>
</defs>
</svg>
