<svg width="631" height="631" viewBox="0 0 631 631" fill="none" xmlns="http://www.w3.org/2000/svg">
<path d="M376.173 97.0769C322.8 97.0769 271.796 126.181 242.692 169.885H230.558C169.885 169.885 118.597 211.123 101.627 266.962C45.7892 269.426 0 317.965 0 376.173C0 436.846 48.5385 485.385 109.212 485.385H497.519C570.327 485.385 631 424.712 631 351.904C631 291.231 589.856 237.573 531.648 222.974C517.048 150.166 451.446 97.0769 376.173 97.0769ZM376.173 145.615C432.011 145.615 480.55 189.129 485.385 244.968V266.962L505.103 269.237C548.807 274.072 580.186 310.476 580.186 354.179C582.651 397.883 543.593 436.846 497.519 436.846H109.212C75.2725 436.846 48.5385 410.112 48.5385 376.173C48.5385 342.234 75.2725 315.5 109.212 315.5H119.071L143.34 320.05L145.615 295.781C150.45 252.078 186.854 218.423 230.558 218.423C235.393 218.423 242.977 218.233 250.276 220.698L269.237 226.007L276.821 208.564C296.255 169.695 334.934 145.615 376.173 145.615ZM315.5 242.692V315.5H254.827L339.769 400.442L424.712 315.5H364.038V242.692H315.5Z" fill="#03045E"/>
</svg>
