<svg width="513" height="513" viewBox="0 0 513 513" fill="none" xmlns="http://www.w3.org/2000/svg">
<g clip-path="url(#clip0)">
<path d="M440.888 64.6088L259.555 0.608773C257.263 -0.204227 254.743 -0.204227 252.451 0.608773L71.1179 64.6088C66.8579 66.1188 64.0029 70.1508 64.0029 74.6718V202.672C64.0029 368.318 88.5659 428.86 251.201 510.86C252.711 511.62 254.357 512.006 256.003 512.006C257.649 512.006 259.295 511.621 260.805 510.86C423.44 428.86 448.003 368.318 448.003 202.672V74.6718C448.003 70.1508 445.148 66.1198 440.888 64.6088ZM426.669 202.672C426.669 361.328 406.44 412.682 256.002 489.38C105.565 412.682 85.3359 361.328 85.3359 202.672V82.2238L256.003 21.9838L426.67 82.2238V202.672H426.669Z" fill="#03045E"/>
<path d="M320.003 298.672H362.67C368.566 298.672 373.337 293.901 373.337 288.005C373.337 282.109 368.566 277.338 362.67 277.338H330.67V202.671C330.67 196.775 325.899 192.004 320.003 192.004C314.107 192.004 309.336 196.775 309.336 202.671V288.004C309.336 293.901 314.107 298.672 320.003 298.672Z" fill="#03045E"/>
<path d="M170.669 213.339H192.002C197.898 213.339 202.669 208.568 202.669 202.672C202.669 196.776 197.898 192.005 192.002 192.005H170.669C153.023 192.005 138.669 206.359 138.669 224.005C138.669 241.651 153.023 256.005 170.669 256.005C176.554 256.005 181.336 260.786 181.336 266.672C181.336 272.557 176.555 277.339 170.669 277.339H149.336C143.44 277.339 138.669 282.11 138.669 288.006C138.669 293.902 143.44 298.673 149.336 298.673H170.669C188.315 298.673 202.669 284.319 202.669 266.673C202.669 249.027 188.315 234.673 170.669 234.673C164.784 234.673 160.002 229.892 160.002 224.006C160.003 218.12 164.784 213.339 170.669 213.339Z" fill="#03045E"/>
<path d="M224.003 224.005C224.003 241.651 238.357 256.005 256.003 256.005C261.888 256.005 266.67 260.786 266.67 266.672C266.67 272.557 261.889 277.339 256.003 277.339H234.67C228.774 277.339 224.003 282.11 224.003 288.006C224.003 293.902 228.774 298.673 234.67 298.673H256.003C273.649 298.673 288.003 284.319 288.003 266.673C288.003 249.027 273.649 234.673 256.003 234.673C250.118 234.673 245.336 229.892 245.336 224.006C245.336 218.121 250.117 213.339 256.003 213.339H277.336C283.232 213.339 288.003 208.568 288.003 202.672C288.003 196.776 283.232 192.005 277.336 192.005H256.003C238.357 192.005 224.003 206.359 224.003 224.005Z" fill="#03045E"/>
</g>
<defs>
<clipPath id="clip0">
<rect width="512.005" height="512.005" fill="white"/>
</clipPath>
</defs>
</svg>
