<svg width="512" height="512" viewBox="0 0 512 512" fill="none" xmlns="http://www.w3.org/2000/svg">
<path d="M459.96 376.504C460.512 375.859 460.939 375.117 461.22 374.316C482.038 338.36 493 297.548 493 256C493 214.452 482.038 173.64 461.22 137.684C460.939 136.883 460.512 136.141 459.96 135.496C429.172 83.5758 379.806 45.2938 321.856 28.4C321.266 28.1312 320.642 27.9467 320 27.852C278.15 16.0482 233.851 16.0482 192 27.852C191.369 27.9416 190.753 28.1165 190.168 28.372C132.203 45.2648 82.8265 83.5586 52.0402 135.496C51.4884 136.141 51.0612 136.883 50.7802 137.684C29.9624 173.64 19 214.452 19 256C19 297.548 29.9624 338.36 50.7802 374.316C51.0612 375.117 51.4884 375.859 52.0402 376.504C82.8031 428.402 132.129 466.679 190.04 483.592C190.652 483.865 191.3 484.05 191.964 484.14C233.827 495.951 278.141 495.951 320.004 484.14C320.703 484.052 321.384 483.859 322.024 483.568C379.907 466.644 429.206 428.379 459.96 376.504V376.504ZM263 478.824V379H358.652C348.252 417.04 333.288 448.648 315.088 471C298.097 475.664 280.612 478.291 263 478.824V478.824ZM196.912 470.992C178.712 448.648 163.748 417.044 153.348 378.992H249V478.816C231.389 478.283 213.903 475.656 196.912 470.992V470.992ZM33.1762 262.992H64.0002V318C64.0013 319.856 64.7391 321.636 66.0517 322.949C67.3642 324.261 69.144 324.999 71.0002 325H128.26C130.116 338.692 132.524 352.08 135.46 365H61.5602C43.9909 333.795 34.2512 298.795 33.1762 263V262.992ZM61.5762 146.992H135.464C132.524 159.912 130.116 173.304 128.264 186.992H71.0002C70.0805 186.993 69.1698 187.174 68.3202 187.527C67.4707 187.879 66.6988 188.396 66.0488 189.046C65.3988 189.697 64.8833 190.469 64.5318 191.319C64.1803 192.169 63.9997 193.08 64.0002 194V249H33.1762C34.2512 213.205 43.9909 178.205 61.5602 147L61.5762 146.992ZM249 33.176V133H153.348C163.748 94.96 178.712 63.352 196.912 41C213.903 36.3358 231.389 33.7093 249 33.176V33.176ZM315.088 41.008C333.288 63.352 348.252 94.956 358.652 133.008H263V33.176C280.612 33.7119 298.098 36.3411 315.088 41.008V41.008ZM478.824 249.008H448V194C447.999 192.144 447.261 190.364 445.949 189.051C444.636 187.739 442.856 187.001 441 187H383.74C381.884 173.308 379.476 159.92 376.54 147H450.44C468.01 178.205 477.749 213.205 478.824 249V249.008ZM450.424 365.008H376.536C379.476 352.088 381.884 338.696 383.736 325.008H441C441.92 325.007 442.831 324.826 443.68 324.473C444.53 324.121 445.302 323.604 445.952 322.954C446.602 322.303 447.117 321.531 447.469 320.681C447.82 319.831 448.001 318.92 448 318V263H478.824C477.749 298.795 468.01 333.795 450.44 365L450.424 365.008ZM262.984 365.008V325.008H369.6C367.684 338.732 365.2 352.124 362.152 365.008H262.984ZM78.0002 311V201H434V311H78.0002ZM369.6 187H263V147H362.164C365.2 159.88 367.692 173.276 369.6 187V187ZM248.988 147V187H142.4C144.316 173.276 146.8 159.884 149.848 147H248.988ZM142.4 325H249V365H149.836C146.8 352.116 144.308 338.724 142.4 325V325ZM337.824 463.4C353.895 437.264 365.81 408.792 373.144 379H441.9C416.618 417.081 380.299 446.525 337.812 463.384L337.824 463.4ZM441.9 133H373.132C365.794 103.209 353.879 74.7376 337.812 48.6C380.296 65.4678 416.61 94.9163 441.888 133H441.9ZM174.2 48.6C158.132 74.7372 146.217 103.209 138.88 133H70.1122C95.3913 94.9196 131.705 65.475 174.188 48.612L174.2 48.6ZM70.1122 379H138.868C146.202 408.791 158.116 437.264 174.184 463.4C131.702 446.532 95.3898 417.083 70.1122 379V379Z" fill="#03045E"/>
<path d="M183.156 268.752L169.244 226.5H157.564L143.568 268.752L130.944 226.5H119.176L137.9 285.5H148.548L163.404 241.704L178.176 285.5H188.912L207.544 226.5H195.78L183.156 268.752Z" fill="#03045E"/>
<path d="M270.816 285.5H281.548L300.184 226.5H288.416L275.796 268.752L261.884 226.5H250.204L236.204 268.752L223.584 226.5H211.816L230.536 285.5H241.188L256.044 241.704L270.816 285.5Z" fill="#03045E"/>
<path d="M333.828 285.5L348.68 241.704L363.452 285.5H374.188L392.824 226.5H381.056L368.432 268.752L354.52 226.5H342.84L328.844 268.752L316.22 226.5H304.456L323.176 285.5H333.828Z" fill="#03045E"/>
</svg>
